<svg width="28" height="33" viewBox="0 0 28 33" fill="none" xmlns="http://www.w3.org/2000/svg">
<path d="M26.0734 8.6808C27.2431 9.3561 27.6438 10.8517 26.9685 12.0214L26.1534 13.4333C25.4781 14.6029 23.9824 15.0037 22.8128 14.3284L22.762 14.2991V14.3577C22.762 15.7083 21.6672 16.8032 20.3166 16.8032H18.6862C18.1726 16.8032 17.6959 16.6448 17.3024 16.3743C18.1519 15.3359 18.7443 14.079 18.9824 12.7008C19.136 12.7184 19.2921 12.7274 19.4503 12.7274C21.7013 12.7274 23.5261 10.9026 23.5261 8.6516C23.5261 6.4006 21.7013 4.5758 19.4503 4.5758C18.3916 4.5758 17.4273 4.97942 16.7026 5.64117C15.6996 4.66043 14.4385 3.94256 13.0306 3.59896C13.7668 2.64189 15.1159 2.35449 16.1901 2.97468L16.2408 3.00392V2.94548C16.2408 1.59488 17.3356 0.5 18.6862 0.5H20.3166C21.6672 0.5 22.762 1.59488 22.762 2.94548V3.00401L22.8127 2.97474C23.9824 2.29944 25.478 2.7002 26.1533 3.86985L26.9685 5.28175C27.6438 6.45141 27.243 7.94704 26.0734 8.62234L26.0228 8.65156L26.0734 8.6808Z" fill="#14C1E0"/>
<path d="M19.0948 11.0714C19.0445 9.52835 18.5553 8.09626 17.7478 6.89604C18.1881 6.469 18.7885 6.20612 19.4503 6.20612C20.8009 6.20612 21.8958 7.301 21.8958 8.6516C21.8958 10.0022 20.8009 11.0971 19.4503 11.0971C19.3295 11.0971 19.2108 11.0883 19.0948 11.0714Z" fill="#14C1E0"/>
<path d="M1.82712 23.6918C3.45339 21.315 6.33358 19.5273 11.1362 19.5273C15.9387 19.5273 18.8189 21.315 20.4452 23.6918C22.017 25.9889 22.2673 28.6218 22.2723 30.0787C22.2773 31.5438 21.1058 32.5 19.9047 32.5H2.36756C1.16649 32.5 -0.0050101 31.5438 1.61156e-05 30.0787C0.0050146 28.6218 0.255355 25.9889 1.82712 23.6918Z" fill="#14C1E0"/>
<path d="M11.1361 17.3678C14.3966 17.3678 17.0397 14.7246 17.0397 11.4642C17.0397 8.20367 14.3966 5.56052 11.1361 5.56052C7.87562 5.56052 5.23247 8.20367 5.23247 11.4642C5.23247 14.7246 7.87562 17.3678 11.1361 17.3678Z" fill="#14C1E0"/>
</svg>
