<svg width="49" height="49" viewBox="0 0 49 49" fill="none" xmlns="http://www.w3.org/2000/svg">
<g filter="url(#filter0_f_182_863)">
<circle cx="24.4688" cy="24.9668" r="6.5" fill="#14C1E0"/>
</g>
<path d="M26.5009 9.05455C26.5009 8.196 25.8298 7.5 25.0019 7.5C24.174 7.5 23.5029 8.196 23.5029 9.05455V11.4934C23.5029 12.3519 24.174 13.0479 25.0019 13.0479C25.8298 13.0479 26.5009 12.3519 26.5009 11.4934V9.05455Z" fill="#14C1E0"/>
<path d="M29.9228 21.1508C29.9228 23.8698 27.7186 26.074 24.9996 26.074C22.2806 26.074 20.0764 23.8698 20.0764 21.1508C20.0764 18.4317 22.2806 16.2275 24.9996 16.2275C27.7186 16.2275 29.9228 18.4317 29.9228 21.1508Z" fill="#14C1E0"/>
<path d="M24.9997 27.8749C20.9946 27.8749 18.5928 29.3656 17.2366 31.3477C15.9258 33.2634 15.7171 35.459 15.7129 36.674C15.7087 37.8957 16.6857 38.6932 17.6873 38.6932H32.312C33.3137 38.6932 34.2906 37.8957 34.2864 36.674C34.2822 35.459 34.0735 33.2634 32.7627 31.3477C31.4065 29.3656 29.0047 27.8749 24.9997 27.8749Z" fill="#14C1E0"/>
<path d="M18.7354 23.3081C18.7354 25.5536 16.9151 27.374 14.6695 27.374C12.424 27.374 10.6036 25.5536 10.6036 23.3081C10.6036 21.0625 12.424 19.2422 14.6695 19.2422C16.9151 19.2422 18.7354 21.0625 18.7354 23.3081Z" fill="#14C1E0"/>
<path d="M15.5519 30.4866C15.9 29.9778 16.3047 29.4956 16.7724 29.0514C16.1395 28.9281 15.4405 28.8612 14.6696 28.8612C11.362 28.8612 9.37838 30.0924 8.25835 31.7293C7.17587 33.3114 7.00345 35.1247 7.00001 36.1281C6.99655 37.1371 7.80337 37.7956 8.63056 37.7956H13.828C13.7429 37.5433 13.6963 37.2668 13.6973 36.9696C13.7024 35.4908 13.9565 32.8183 15.5519 30.4866Z" fill="#14C1E0"/>
<path d="M36.1737 37.7956C36.2587 37.5433 36.3054 37.2668 36.3044 36.9696C36.2993 35.4908 36.0452 32.8183 34.4498 30.4866C34.1016 29.9777 33.6967 29.4953 33.2289 29.0511C33.8612 28.928 34.5596 28.8612 35.3297 28.8612C38.6373 28.8612 40.6209 30.0924 41.7409 31.7293C42.8234 33.3114 42.9958 35.1247 42.9993 36.1281C43.0027 37.1371 42.1959 37.7956 41.3687 37.7956H36.1737Z" fill="#14C1E0"/>
<path d="M35.3297 27.374C37.5752 27.374 39.3956 25.5536 39.3956 23.3081C39.3956 21.0625 37.5752 19.2422 35.3297 19.2422C33.0842 19.2422 31.2638 21.0625 31.2638 23.3081C31.2638 25.5536 33.0842 27.374 35.3297 27.374Z" fill="#14C1E0"/>
<path d="M33.2714 10.655C33.8567 11.2404 33.8391 12.2071 33.2321 12.8142L31.5075 14.5387C30.9004 15.1458 29.9338 15.1634 29.3484 14.578C28.763 13.9926 28.7806 13.0259 29.3877 12.4188L31.1122 10.6943C31.7193 10.0872 32.686 10.0696 33.2714 10.655Z" fill="#14C1E0"/>
<path d="M18.8924 10.6945C18.2854 10.0874 17.3187 10.0698 16.7333 10.6552C16.1479 11.2405 16.1655 12.2072 16.7726 12.8143L18.4971 14.5388C19.1042 15.1459 20.0709 15.1635 20.6563 14.5781C21.2416 13.9928 21.2241 13.0261 20.617 12.419L18.8924 10.6945Z" fill="#14C1E0"/>
<defs>
<filter id="filter0_f_182_863" x="0.36875" y="0.866796" width="48.2" height="48.2" filterUnits="userSpaceOnUse" color-interpolation-filters="sRGB">
<feFlood flood-opacity="0" result="BackgroundImageFix"/>
<feBlend mode="normal" in="SourceGraphic" in2="BackgroundImageFix" result="shape"/>
<feGaussianBlur stdDeviation="8.8" result="effect1_foregroundBlur_182_863"/>
</filter>
</defs>
</svg>
