<svg width="49" height="48" viewBox="0 0 49 48" fill="none" xmlns="http://www.w3.org/2000/svg">
<g filter="url(#filter0_f_182_851)">
<circle cx="24.4688" cy="24.9668" r="6.5" fill="#5FF9FF"/>
</g>
<path d="M30.5062 15.7469C30.5062 17.045 30.2317 18.2334 29.717 19.2985C29.051 20.6768 26.8343 19.6272 27.4593 18.3278C27.8306 17.556 28.0446 16.6712 28.0446 15.6781C27.8286 12.1494 25.0467 10.0544 22.2375 10.0544C18.9084 10.0544 16.4631 12.7514 16.4631 15.6553C16.4631 17.1652 16.8583 18.2979 17.4537 19.1156C19.1285 21.0992 17.4537 22.6641 16.397 21.6083C14.8969 20.1093 13.9688 18.0367 13.9688 15.7469C13.9688 11.1739 17.6708 7.4668 22.2375 7.4668C26.8042 7.4668 30.5062 11.1739 30.5062 15.7469Z" fill="#14C1E0"/>
<path d="M16.5641 31.2228L26.9202 35.3037C27.6315 35.5839 28.4345 35.4995 29.0721 35.0775L31.3908 33.5427C32.3761 32.8906 32.9688 31.7868 32.9688 30.6042V26.5941C32.9688 25.1903 32.1363 23.9205 30.85 23.3622L25.6822 21.1193C25.313 20.9591 25.0517 20.6205 24.9899 20.2223L24.1086 14.5455C23.9539 13.5493 23.0972 12.8145 22.0904 12.8145C20.9624 12.8145 20.048 13.7302 20.048 14.8597L20.048 24.7134C20.048 25.3618 19.523 25.8875 18.8754 25.8875H17.4228C16.1276 25.8875 15.0777 26.9389 15.0777 28.2358V29.0376C15.0777 30.0026 15.6673 30.8694 16.5641 31.2228Z" fill="#14C1E0"/>
<defs>
<filter id="filter0_f_182_851" x="0.36875" y="0.866796" width="48.2" height="48.2" filterUnits="userSpaceOnUse" color-interpolation-filters="sRGB">
<feFlood flood-opacity="0" result="BackgroundImageFix"/>
<feBlend mode="normal" in="SourceGraphic" in2="BackgroundImageFix" result="shape"/>
<feGaussianBlur stdDeviation="8.8" result="effect1_foregroundBlur_182_851"/>
</filter>
</defs>
</svg>
